<svg xmlns="http://www.w3.org/2000/svg" version="1.1" xmlns:xlink="http://www.w3.org/1999/xlink" xmlns:svgjs="http://svgjs.com/svgjs" width="512" height="512" x="0" y="0" viewBox="0 0 512 512" style="enable-background:new 0 0 512 512" xml:space="preserve" class=""><g><linearGradient id="a" x1="255.995" x2="255.996" y1="431.116" y2="80.92" gradientUnits="userSpaceOnUse"><stop offset="0" stop-color="#6c54a3"></stop><stop offset="1" stop-color="#00b1d2"></stop></linearGradient><path fill="url(#a)" fill-rule="evenodd" d="M45.75 134.833V358.67a8.267 8.267 0 0 0 8.25 8.288 7.94 7.94 0 0 0 2.622-.429c39.852-12.074 75.618-13.717 107.061-7.073 33.793 7.145 62.742 23.863 86.484 47.583a8.271 8.271 0 0 0 11.674 0c23.741-23.72 52.691-40.438 86.484-47.583 31.5-6.644 67.352-4.929 107.289 7.145a8.28 8.28 0 0 0 10.288-5.5 8.76 8.76 0 0 0 .35-2.43V134.833h45.747v296.283c-10.767-3.715-21.748-7.645-32.494-11.5-90.613-32.436-165.116-59.085-223.5-7.145-58.392-51.94-132.888-25.291-223.5 7.145-10.745 3.858-21.719 7.788-32.5 11.5V134.833zM247.74 377.1V131.4h1.436C225.621 108.184 197 91.752 163.678 84.75c-29.936-6.287-63.83-5.073-101.417 5.43v257.559c38.466-10.073 73.489-11 104.774-4.429a185.315 185.315 0 0 1 80.705 39.223zm202-29.364V90.18c-37.587-10.5-71.48-11.717-101.416-5.43-33.322 7-61.943 23.434-85.5 46.653h1.443v251.13a185.323 185.323 0 0 1 80.7-39.223c31.281-6.573 66.304-5.644 104.769 4.429z" data-original="url(#a)" class=""></path></g></svg>